HIERARCHY
ROOT Hips
{
	OFFSET 0.000000 89.005402 0.000000
	CHANNELS 6 Xposition Yposition Zposition Xrotation Yrotation Zrotation
	JOINT Spine
	{
		OFFSET 0.116900 10.681000 0.373400
		CHANNELS 3 Xrotation Yrotation Zrotation
		JOINT Spine1
		{
			OFFSET 0.000000 13.840401 0.053500
			CHANNELS 3 Xrotation Yrotation Zrotation
			JOINT Spine2
			{
				OFFSET 0.000000 14.712700 -0.366200
				CHANNELS 3 Xrotation Yrotation Zrotation
				JOINT Neck
				{
					OFFSET 0.000000 35.415497 -3.314200
					CHANNELS 3 Xrotation Yrotation Zrotation
					JOINT Head
					{
						OFFSET 0.000000 16.899200 1.218300
						CHANNELS 3 Xrotation Yrotation Zrotation
						JOINT HeadTop_End
						{
							OFFSET 0.000000 22.206207 2.192500
							CHANNELS 3 Xrotation Yrotation Zrotation
							End Site
							{
								OFFSET 0.000000 22.314178 0.000000
							}
						}
					}
				}
				JOINT LeftShoulder
				{
					OFFSET 12.896400 26.716293 -4.548400
					CHANNELS 3 Xrotation Yrotation Zrotation
					JOINT LeftArm
					{
						OFFSET 19.027000 -4.857010 -1.718400
						CHANNELS 3 Xrotation Yrotation Zrotation
						JOINT LeftForeArm
						{
							OFFSET 24.179897 0.000000 0.000000
							CHANNELS 3 Xrotation Yrotation Zrotation
							JOINT LeftHand
							{
								OFFSET 27.156403 0.000000 0.000000
								CHANNELS 3 Xrotation Yrotation Zrotation
								JOINT LeftHandIndex1
								{
									OFFSET 16.441200 0.000000 0.000000
									CHANNELS 3 Xrotation Yrotation Zrotation
									JOINT LeftHandIndex2
									{
										OFFSET 4.821899 0.000000 0.000000
										CHANNELS 3 Xrotation Yrotation Zrotation
										JOINT LeftHandIndex3
										{
											OFFSET 6.386497 0.000000 0.000000
											CHANNELS 3 Xrotation Yrotation Zrotation
											JOINT LeftHandIndex4
											{
												OFFSET 5.188988 0.000000 0.000000
												CHANNELS 3 Xrotation Yrotation Zrotation
												End Site
												{
													OFFSET -0.178703 5.185913 0.000177
												}
											}
										}
									}
								}
								JOINT LeftHandThumb1
								{
									OFFSET 6.534897 -5.032593 5.900300
									CHANNELS 3 Xrotation Yrotation Zrotation
									JOINT LeftHandThumb2
									{
										OFFSET 3.818176 -2.204422 2.204423
										CHANNELS 3 Xrotation Yrotation Zrotation
										JOINT LeftHandThumb3
										{
											OFFSET 3.252098 -1.877594 1.877601
											CHANNELS 3 Xrotation Yrotation Zrotation
											JOINT LeftHandThumb4
											{
												OFFSET 5.251778 -3.032120 3.032117
												CHANNELS 3 Xrotation Yrotation Zrotation
												End Site
												{
													OFFSET 0.000023 6.780014 0.000000
												}
											}
										}
									}
								}
							}
						}
					}
				}
				JOINT RightShoulder
				{
					OFFSET -12.896300 26.716293 -4.548400
					CHANNELS 3 Xrotation Yrotation Zrotation
					JOINT RightArm
					{
						OFFSET -19.027000 -4.857010 -1.718400
						CHANNELS 3 Xrotation Yrotation Zrotation
						JOINT RightForeArm
						{
							OFFSET -24.179897 0.000000 0.000000
							CHANNELS 3 Xrotation Yrotation Zrotation
							JOINT RightHand
							{
								OFFSET -27.156403 0.000000 0.000000
								CHANNELS 3 Xrotation Yrotation Zrotation
								JOINT RightHandThumb1
								{
									OFFSET -6.591202 -4.852203 5.988100
									CHANNELS 3 Xrotation Yrotation Zrotation
									JOINT RightHandThumb2
									{
										OFFSET -3.818176 -2.204422 2.204423
										CHANNELS 3 Xrotation Yrotation Zrotation
										JOINT RightHandThumb3
										{
											OFFSET -3.252098 -1.877594 1.877601
											CHANNELS 3 Xrotation Yrotation Zrotation
											JOINT RightHandThumb4
											{
												OFFSET -5.251778 -3.032120 3.032117
												CHANNELS 3 Xrotation Yrotation Zrotation
												End Site
												{
													OFFSET -0.000023 6.780014 0.000000
												}
											}
										}
									}
								}
								JOINT RightHandIndex1
								{
									OFFSET -16.029404 0.000000 0.000000
									CHANNELS 3 Xrotation Yrotation Zrotation
									JOINT RightHandIndex2
									{
										OFFSET -5.213303 0.000000 0.000000
										CHANNELS 3 Xrotation Yrotation Zrotation
										JOINT RightHandIndex3
										{
											OFFSET -6.386528 0.000000 0.000000
											CHANNELS 3 Xrotation Yrotation Zrotation
											JOINT RightHandIndex4
											{
												OFFSET -5.189026 0.000000 0.000000
												CHANNELS 3 Xrotation Yrotation Zrotation
												End Site
												{
													OFFSET 0.236702 5.183624 0.001972
												}
											}
										}
									}
								}
							}
						}
					}
				}
			}
		}
	}
	JOINT LeftUpLeg
	{
		OFFSET 14.073000 -7.904099 -1.463000
		CHANNELS 3 Xrotation Yrotation Zrotation
		JOINT LeftLeg
		{
			OFFSET -0.109806 -34.073280 4.093200
			CHANNELS 3 Xrotation Yrotation Zrotation
			JOINT LeftFoot
			{
				OFFSET 0.109806 -29.899420 -6.319000
				CHANNELS 3 Xrotation Yrotation Zrotation
				JOINT LeftToeBase
				{
					OFFSET 1.551100 -14.988700 20.535801
					CHANNELS 3 Xrotation Yrotation Zrotation
					JOINT LeftToe_End
					{
						OFFSET 0.221200 0.570800 13.248301
						CHANNELS 3 Xrotation Yrotation Zrotation
						End Site
						{
							OFFSET 0.000000 13.262435 0.000000
						}
					}
				}
			}
		}
	}
	JOINT RightUpLeg
	{
		OFFSET -13.839300 -7.904099 -1.463000
		CHANNELS 3 Xrotation Yrotation Zrotation
		JOINT RightLeg
		{
			OFFSET 0.109694 -34.073219 4.093300
			CHANNELS 3 Xrotation Yrotation Zrotation
			JOINT RightFoot
			{
				OFFSET -0.109694 -29.899384 -6.319200
				CHANNELS 3 Xrotation Yrotation Zrotation
				JOINT RightToeBase
				{
					OFFSET -1.551100 -14.988700 20.535801
					CHANNELS 3 Xrotation Yrotation Zrotation
					JOINT RightToe_End
					{
						OFFSET -0.221200 0.570900 13.248299
						CHANNELS 3 Xrotation Yrotation Zrotation
						End Site
						{
							OFFSET 0.000000 13.262440 0.000000
						}
					}
				}
			}
		}
	}
}
MOTION
Frames: 4
Frame Time: 0.033333
-2.209752 114.869858 3.633818 13.593501 -1.937056 1.259566 1.919725 0.986107 -2.678168 3.033430 2.330557 -3.230004 3.045011 2.329560 -3.208330 7.709719 0.056003 -0.020867 -21.898732 -1.535846 2.820294 0.000000 -0.000000 -0.000000 0.424944 -0.623062 3.481927 -52.514452 24.178950 -5.567555 -0.000002 -60.419334 0.000001 -50.300023 -24.269161 4.902591 0.076144 1.023157 -8.510294 0.128077 1.324437 -11.044805 0.032076 0.665297 -5.521665 -0.000003 0.000001 -0.000001 -19.681612 -17.888962 12.661366 3.946759 7.971395 0.752844 -0.575598 1.586256 2.542384 0.000003 -0.000000 0.000000 0.275640 -5.393689 6.677379 -54.056279 6.070903 6.168751 0.000001 0.000013 -0.000001 -75.633041 29.123428 13.079321 -14.826097 12.168115 -30.369589 4.645033 -8.656782 -0.231308 -1.269838 0.126072 -2.098670 -0.000000 -0.000001 0.000002 0.011321 -0.396944 3.258855 0.000000 0.000007 0.000013 0.000032 0.019818 -0.162593 0.000000 -0.000000 -0.000000 -31.185633 7.893779 4.894192 18.892303 -1.531966 -0.066634 16.945431 -0.095623 -1.438102 0.000004 -0.000001 0.000000 0.000002 -0.000000 0.000000 -27.528961 -4.307435 -4.060182 11.061826 3.408995 0.151765 18.815250 2.925577 10.892798 -0.000052 0.000001 0.000002 -0.000001 0.000000 -0.000001 
-2.141646 113.369781 3.523808 14.034380 -0.589113 0.705742 2.919564 0.918382 -2.707885 4.823884 2.376394 -3.233446 4.835390 2.365963 -3.207487 11.177302 -0.162093 0.798799 -14.658957 -1.672388 1.997143 0.000001 -0.000000 0.000000 0.253196 0.349838 4.500722 -47.067301 31.781393 -1.543379 -0.000008 -52.127218 -0.000001 -51.163919 -25.465230 4.750669 0.032547 -0.670145 5.562074 -0.000005 -0.000001 -0.000017 0.000003 -0.017644 0.146223 -0.000000 0.000004 0.000001 -22.547033 -20.676050 10.994920 3.946761 7.971391 0.752845 -0.575598 1.586253 2.542383 -0.000000 -0.000000 -0.000000 0.182809 -6.119220 6.187140 -43.803714 -5.432210 4.888117 0.000002 0.000000 -0.000001 -69.343052 23.189295 -0.929945 -14.608771 11.967209 -30.326760 4.645037 -8.656781 -0.231308 -1.269839 0.126074 -2.098675 0.000001 -0.000002 0.000002 0.011085 -0.393295 3.229028 0.000024 -0.014417 0.118247 -0.000005 -0.007207 0.059123 -0.000000 -0.000002 -0.000000 -34.084618 7.532189 5.225478 21.078951 -0.895473 -0.051992 14.851399 -0.142855 -2.332178 0.000004 0.000002 0.000000 0.000001 0.000000 -0.000000 -29.053002 -4.395742 -4.505661 11.222011 2.820674 0.122446 19.734363 3.206390 12.176645 -0.000058 0.000001 -0.000001 0.000002 0.000000 -0.000000 
-2.138659 110.693184 3.591690 13.195956 0.078086 0.270911 3.392247 0.839169 -2.729904 5.672605 2.325071 -3.135718 5.683534 2.307591 -3.108713 12.526268 -0.234346 1.601540 -10.865609 -1.221371 1.738952 -0.000001 -0.000000 -0.000000 0.122104 1.046171 4.984666 -40.618418 33.014269 -3.048298 0.000003 -45.297989 0.000000 -47.810829 -24.849895 6.757728 0.026748 -0.607494 5.040637 -0.000006 0.010388 -0.086053 0.000004 0.005189 -0.043026 -0.000000 -0.000000 0.000000 -22.302767 -20.396169 11.087360 3.946761 7.971393 0.752845 -0.575600 1.586254 2.542384 0.000000 0.000001 0.000000 0.052315 -5.765746 4.450754 -34.091684 -10.654600 10.568802 0.000002 0.000001 -0.000000 -66.133061 21.311394 -9.015036 -14.278224 11.664830 -30.233955 4.645034 -8.656783 -0.231309 -1.269838 0.126075 -2.098674 -0.000000 0.000000 -0.000003 0.011600 -0.402142 3.301708 0.000059 -0.034274 0.281245 0.000004 -0.017138 0.140622 -0.000003 -0.000001 -0.000001 -35.666678 7.586011 5.752376 24.413727 -1.444770 -0.082012 14.543107 -0.173626 -2.556964 -0.000001 -0.000001 0.000000 0.000001 0.000001 0.000000 -29.503190 -4.557962 -4.877255 13.130065 2.709366 0.108559 21.292025 3.591824 12.942640 -0.000048 0.000000 -0.000006 -0.000001 0.000000 0.000001 
-2.166040 106.855980 3.771508 12.466975 0.266943 0.011254 3.222505 0.764575 -2.688474 5.341316 2.201764 -2.896168 5.351166 2.182518 -2.871051 11.943603 -0.162528 1.749605 -10.806684 -0.794389 2.044665 0.000001 -0.000000 0.000000 0.064087 1.674917 4.123504 -38.057312 27.975441 -6.653641 0.000008 -42.853799 0.000003 -43.300483 -23.732558 7.554721 0.023622 -0.571017 4.737185 0.000071 0.030382 -0.251763 0.000015 0.015190 -0.125886 -0.000001 -0.000002 -0.000000 -21.971108 -19.978256 11.179182 3.946761 7.971390 0.752845 -0.575600 1.586252 2.542384 0.000000 -0.000001 -0.000000 0.030515 -4.999210 3.013080 -29.079455 -7.026128 17.516261 -0.000000 0.000001 -0.000001 -65.833844 23.391207 -11.194570 -13.805132 11.232263 -30.098718 4.645034 -8.656782 -0.231308 -1.269839 0.126074 -2.098671 0.000000 -0.000000 -0.000002 0.012513 -0.418237 3.434045 0.000311 -0.064598 0.530078 0.000073 -0.032300 0.265039 0.000001 -0.000000 0.000000 -36.965428 7.682973 6.146700 27.134366 -3.115296 -0.176379 17.068269 -0.213323 -1.919758 0.000002 -0.000000 0.000001 -0.000003 -0.000000 0.000000 -29.662692 -4.691817 -5.276963 14.816519 2.706054 0.164892 24.735074 4.193361 13.518546 -0.000032 -0.000002 0.000002 -0.000003 0.000000 0.000001 
